<svg width="216" height="104" viewBox="0 0 216 104" fill="none" xmlns="http://www.w3.org/2000/svg">
<path d="M37.0926 59.5C32.8259 59.5 29.7259 58.8167 27.7926 57.45C25.8926 56.1167 24.9426 54.2667 24.9426 51.9C24.9426 50.4333 25.3926 49.0833 26.2926 47.85C27.2259 46.6167 28.3259 45.6833 29.5926 45.05C28.0592 44.1833 27.2926 42.7833 27.2926 40.85C27.2926 39.65 27.6426 38.5167 28.3426 37.45C29.0426 36.3833 29.9592 35.5667 31.0926 35C29.4259 34.2667 28.1426 33.2167 27.2426 31.85C26.3759 30.4833 25.9426 28.8667 25.9426 27C25.9426 25.0667 26.4759 23.3833 27.5426 21.95C28.6426 20.5167 30.0759 19.4167 31.8426 18.65C33.6426 17.8833 35.5426 17.5 37.5426 17.5C40.9092 17.5 43.5426 18.2 45.4426 19.6C45.9426 19.1 46.7092 18.6167 47.7426 18.15C48.7759 17.6833 49.8759 17.45 51.0426 17.45H52.7426V21.85H47.2426C48.0426 23.0833 48.4426 24.5167 48.4426 26.15C48.4426 28.1167 47.9426 29.8667 46.9426 31.4C45.9759 32.9 44.6092 34.0667 42.8426 34.9C41.1092 35.7333 39.1426 36.15 36.9426 36.15C35.5092 36.15 34.2259 36 33.0926 35.7C32.6259 36.1667 32.2426 36.6833 31.9426 37.25C31.6426 37.8167 31.4926 38.3667 31.4926 38.9C31.4926 40.1 31.8926 40.9333 32.6926 41.4C33.4926 41.8333 34.9259 42.05 36.9926 42.05H42.6426C45.8759 42.05 48.2759 42.6667 49.8426 43.9C51.4092 45.1333 52.1926 46.8833 52.1926 49.15C52.1926 51.05 51.5092 52.7833 50.1426 54.35C48.7759 55.95 46.9259 57.2 44.5926 58.1C42.2926 59.0333 39.7926 59.5 37.0926 59.5ZM37.4426 33.4C41.2426 33.4 43.1426 31.15 43.1426 26.65C43.1426 24.4167 42.6426 22.7833 41.6426 21.75C40.6759 20.6833 39.2092 20.15 37.2426 20.15C35.4092 20.15 33.9592 20.6667 32.8926 21.7C31.8259 22.7 31.2926 24.3167 31.2926 26.55C31.2926 28.65 31.7926 30.3167 32.7926 31.55C33.8259 32.7833 35.3759 33.4 37.4426 33.4ZM37.5426 56.6C39.1759 56.6 40.7092 56.35 42.1426 55.85C43.6092 55.3833 44.7926 54.6667 45.6926 53.7C46.5926 52.7667 47.0426 51.6667 47.0426 50.4C47.0426 48.9 46.6426 47.8 45.8426 47.1C45.0426 46.4333 43.4926 46.1 41.1926 46.1H35.2926C33.9592 46.1 32.9092 46.0167 32.1426 45.85C30.7759 47.35 30.0926 49.0333 30.0926 50.9C30.0926 52.7667 30.6592 54.1833 31.7926 55.15C32.9259 56.1167 34.8426 56.6 37.5426 56.6ZM55.6137 43.55L59.3637 43.25V22.1L55.7637 21.2V18.5L62.6637 17.6H62.7637L63.8637 18.5V19.4L63.7137 23.3H63.8637C64.197 22.7333 64.797 22 65.6637 21.1C66.5303 20.2 67.647 19.3833 69.0137 18.65C70.3803 17.8833 71.8637 17.5 73.4637 17.5C74.1303 17.5 74.6803 17.5833 75.1137 17.75V23.35C74.8803 23.1833 74.497 23.0333 73.9637 22.9C73.4637 22.7333 72.897 22.65 72.2637 22.65C69.497 22.65 66.9303 23.5 64.5637 25.2V43.2L70.9137 43.6V46H55.6137V43.55ZM78.4141 32.05C78.4141 29.05 79.0307 26.45 80.2641 24.25C81.4974 22.05 83.1141 20.3833 85.1141 19.25C87.1474 18.0833 89.3141 17.5 91.6141 17.5C95.8141 17.5 98.9641 18.8333 101.064 21.5C103.197 24.1667 104.264 27.6667 104.264 32C104.264 35.0333 103.647 37.65 102.414 39.85C101.181 42.05 99.5474 43.7167 97.5141 44.85C95.5141 45.9833 93.3641 46.55 91.0641 46.55C86.8641 46.55 83.6974 45.2167 81.5641 42.55C79.4641 39.8833 78.4141 36.3833 78.4141 32.05ZM91.3641 43.7C93.6641 43.7 95.4307 42.75 96.6641 40.85C97.8974 38.95 98.5141 36.1333 98.5141 32.4C98.5141 28.7 97.9474 25.7667 96.8141 23.6C95.6807 21.4333 93.8641 20.35 91.3641 20.35C89.0641 20.35 87.2807 21.3 86.0141 23.2C84.7807 25.1 84.1641 27.9167 84.1641 31.65C84.1641 35.35 84.7474 38.2833 85.9141 40.45C87.0807 42.6167 88.8974 43.7 91.3641 43.7ZM108.834 32.05C108.834 29.05 109.451 26.45 110.684 24.25C111.917 22.05 113.534 20.3833 115.534 19.25C117.567 18.0833 119.734 17.5 122.034 17.5C126.234 17.5 129.384 18.8333 131.484 21.5C133.617 24.1667 134.684 27.6667 134.684 32C134.684 35.0333 134.067 37.65 132.834 39.85C131.601 42.05 129.967 43.7167 127.934 44.85C125.934 45.9833 123.784 46.55 121.484 46.55C117.284 46.55 114.117 45.2167 111.984 42.55C109.884 39.8833 108.834 36.3833 108.834 32.05ZM121.784 43.7C124.084 43.7 125.851 42.75 127.084 40.85C128.317 38.95 128.934 36.1333 128.934 32.4C128.934 28.7 128.367 25.7667 127.234 23.6C126.101 21.4333 124.284 20.35 121.784 20.35C119.484 20.35 117.701 21.3 116.434 23.2C115.201 25.1 114.584 27.9167 114.584 31.65C114.584 35.35 115.167 38.2833 116.334 40.45C117.501 42.6167 119.317 43.7 121.784 43.7ZM136.954 18.25H148.554V20.6L145.004 21.25L150.054 35.65L152.154 42L153.954 35.85L159.004 21.25L155.604 20.6V18.25H165.754V20.6L163.154 21.25L153.504 46.4H149.254L139.204 21.25L136.954 20.6V18.25ZM172.722 21.45L171.822 26.2H168.772V18.25H190.022L191.022 20.4L176.322 40.1L172.872 43.2L186.322 42.75L188.422 37.15L191.322 37.5L190.422 46H167.972L166.922 43.8L181.872 24.3L185.172 21.1L172.722 21.45ZM17.5455 81.5C16.7122 81.5 15.9122 81.1167 15.1455 80.35C14.3788 79.5833 13.7622 78.5667 13.2955 77.3C12.8622 76 12.6455 74.65 12.6455 73.25C12.6455 71.2167 12.9955 69.3167 13.6955 67.55C14.3955 65.7833 15.2455 64.3 16.2455 63.1C17.2455 61.9 18.1788 61.0833 19.0455 60.65L20.3955 62V62.55C19.9622 62.8833 19.4788 63.5167 18.9455 64.45C18.4122 65.3833 17.9455 66.5333 17.5455 67.9C17.1455 69.2333 16.9455 70.6167 16.9455 72.05C16.9455 72.75 17.0788 73.35 17.3455 73.85C17.6455 74.35 18.0788 74.9333 18.6455 75.6C19.1788 76.2 19.5788 76.7333 19.8455 77.2C20.1122 77.6333 20.2455 78.15 20.2455 78.75C20.2455 79.6167 19.9955 80.3 19.4955 80.8C18.9955 81.2667 18.3455 81.5 17.5455 81.5ZM31.4385 79.1L27.8385 78.2V75.5L34.9885 74.6H35.1385L36.1885 75.5V77.6L36.1385 78.8C37.3385 77.7333 38.9218 76.7667 40.8885 75.9C42.8551 75.0333 44.7385 74.6 46.5385 74.6C48.6385 74.6 50.2551 75 51.3885 75.8C52.5551 76.6 53.3718 77.8333 53.8385 79.5C54.3051 81.1333 54.5385 83.35 54.5385 86.15V100.15L58.0385 100.5V103H46.1885V100.55L49.2885 100.15V86.1C49.2885 84.1333 49.1551 82.6 48.8885 81.5C48.6218 80.3667 48.1218 79.5333 47.3885 79C46.6551 78.4333 45.5885 78.15 44.1885 78.15C42.9885 78.15 41.7051 78.45 40.3385 79.05C38.9718 79.65 37.7551 80.35 36.6885 81.15V100.1L40.0885 100.55V103H28.2885V100.55L31.4385 100.1V79.1ZM82.0568 103.5C80.1568 103.5 78.7402 103.067 77.8068 102.2C76.8735 101.333 76.4068 99.85 76.4068 97.75V78.55H72.8068V76.3C72.9735 76.2667 73.4402 76.15 74.2068 75.95C74.9735 75.75 75.4902 75.5667 75.7568 75.4C76.2902 75.1 76.7068 74.5 77.0068 73.6C77.2735 72.9667 77.5902 71.95 77.9568 70.55C78.3235 69.15 78.5402 68.3167 78.6068 68.05H81.5568L81.6568 75.25H90.0068V78.55H81.6568V93.9C81.6568 95.8 81.7068 97.1333 81.8068 97.9C81.9402 98.6667 82.1902 99.1667 82.5568 99.4C82.9568 99.6333 83.6235 99.75 84.5568 99.75C85.4568 99.75 86.4402 99.6333 87.5068 99.4C88.6068 99.1667 89.4568 98.9167 90.0568 98.65L90.8068 100.9C90.0068 101.5 88.7068 102.083 86.9068 102.65C85.1402 103.217 83.5235 103.5 82.0568 103.5ZM116.618 103.45C115.685 103.45 114.985 103.267 114.518 102.9C114.085 102.533 113.868 101.933 113.868 101.1V99.4C112.768 100.5 111.385 101.467 109.718 102.3C108.085 103.133 106.435 103.55 104.768 103.55C101.668 103.55 99.4682 102.717 98.1682 101.05C96.8682 99.3833 96.2182 96.6333 96.2182 92.8V78.3L93.4182 77.5V75.3L100.418 74.65H100.468L101.418 75.25V92.4C101.418 94.3333 101.551 95.85 101.818 96.95C102.118 98.0167 102.618 98.8167 103.318 99.35C104.051 99.85 105.101 100.1 106.468 100.1C107.801 100.1 109.051 99.8167 110.218 99.25C111.385 98.6833 112.401 98.0167 113.268 97.25V78.3L109.668 77.5V75.3L117.268 74.65H117.318L118.468 75.25V100.45H121.468L121.418 102.7C120.485 102.933 119.668 103.117 118.968 103.25C118.301 103.383 117.518 103.45 116.618 103.45ZM128.46 79.1L124.86 78.2V75.5L132.01 74.6H132.16L133.21 75.5V77.6L133.16 78.8C134.36 77.7333 135.943 76.7667 137.91 75.9C139.877 75.0333 141.76 74.6 143.56 74.6C145.66 74.6 147.277 75 148.41 75.8C149.577 76.6 150.393 77.8333 150.86 79.5C151.327 81.1333 151.56 83.35 151.56 86.15V100.15L155.06 100.5V103H143.21V100.55L146.31 100.15V86.1C146.31 84.1333 146.177 82.6 145.91 81.5C145.643 80.3667 145.143 79.5333 144.41 79C143.677 78.4333 142.61 78.15 141.21 78.15C140.01 78.15 138.727 78.45 137.36 79.05C135.993 79.65 134.777 80.35 133.71 81.15V100.1L137.11 100.55V103H125.31V100.55L128.46 100.1V79.1ZM170.963 103.55C166.93 103.55 163.846 102.233 161.713 99.6C159.613 96.9667 158.563 93.45 158.563 89.05C158.563 86.15 159.113 83.6 160.213 81.4C161.313 79.2 162.846 77.5 164.813 76.3C166.813 75.1 169.08 74.5 171.613 74.5C174.713 74.5 177.113 75.3667 178.813 77.1C180.546 78.8 181.463 81.25 181.563 84.45C181.563 86.4833 181.446 88.0333 181.213 89.1H164.013C164.08 92.4 164.846 95.0667 166.313 97.1C167.78 99.1 169.863 100.1 172.563 100.1C173.896 100.1 175.28 99.8667 176.713 99.4C178.18 98.9 179.313 98.3167 180.113 97.65L181.063 99.85C180.096 100.85 178.663 101.717 176.763 102.45C174.863 103.183 172.93 103.55 170.963 103.55ZM176.063 86.45C176.163 85.75 176.213 85.0333 176.213 84.3C176.18 82.1333 175.713 80.4333 174.813 79.2C173.946 77.9333 172.563 77.3 170.663 77.3C168.73 77.3 167.18 78 166.013 79.4C164.88 80.8 164.23 83.15 164.063 86.45H176.063ZM190.51 99C190.844 99.5 191.544 99.95 192.61 100.35C193.71 100.75 194.86 100.95 196.06 100.95C197.96 100.95 199.36 100.583 200.26 99.85C201.16 99.1167 201.61 98.1 201.61 96.8C201.61 95.9 201.327 95.1167 200.76 94.45C200.194 93.7833 199.394 93.2 198.36 92.7C197.36 92.1667 195.91 91.5333 194.01 90.8C191.444 89.8333 189.56 88.6833 188.36 87.35C187.194 85.9833 186.61 84.2 186.61 82C186.61 80.5333 187.044 79.25 187.91 78.15C188.81 77.05 190.027 76.2 191.56 75.6C193.127 74.9667 194.86 74.65 196.76 74.65C198.294 74.65 199.627 74.7667 200.76 75C201.927 75.2333 202.86 75.4667 203.56 75.7C204.26 75.9333 204.727 76.0833 204.96 76.15V82.35H201.91L200.91 78.65C200.71 78.25 200.177 77.9167 199.31 77.65C198.444 77.35 197.477 77.2 196.41 77.2C194.91 77.2 193.694 77.5333 192.76 78.2C191.86 78.8667 191.41 79.7667 191.41 80.9C191.41 81.9 191.644 82.7333 192.11 83.4C192.61 84.0333 193.227 84.55 193.96 84.95C194.694 85.35 195.694 85.8167 196.96 86.35L197.96 86.75C199.827 87.4833 201.344 88.1833 202.51 88.85C203.677 89.5167 204.644 90.4 205.41 91.5C206.21 92.5667 206.61 93.8833 206.61 95.45C206.61 97.9167 205.644 99.8833 203.71 101.35C201.81 102.817 199.194 103.55 195.86 103.55C194.227 103.55 192.51 103.333 190.71 102.9C188.944 102.433 187.494 101.967 186.36 101.5V95.1H189.61L190.51 99Z" fill="white"/>
<line x1="122" y1="63" x2="202" y2="63" stroke="#F4B860" stroke-width="2"/>
</svg>
